<svg xmlns="http://www.w3.org/2000/svg" width="478.5" height="264" viewBox="0 0 478.5 264">
    <defs>
        <style>
            .cls-1,.cls-16,.cls-20{fill:none}.cls-1,.cls-15,.cls-3{stroke:#010101}.cls-1,.cls-15{stroke-width:2px}.cls-15,.cls-2,.cls-3{fill:#fff}.cls-4{fill:#010101}.cls-7{fill:#231c1d}.cls-8{fill:#d50037}.cls-13{fill:#53575a}.cls-14{fill:#d60037}.cls-16{stroke:#fff}.cls-18,.cls-19{stroke:none}.cls-19{fill:#010101}
        </style>
    </defs>
    <g id="img_p_mobile_illust" transform="translate(-1151 -2166.915)">
        <path id="계단라인" d="M1161.634 2438.567v-40.592h476.5v40.592" class="cls-1" transform="translate(-9.634 -7.652)"/>
        <g id="폰" transform="translate(68.5 1589.915)">
            <g id="패스_2936" class="cls-2">
                <path d="M108 223H28c-4.54 0-8.81-1.768-12.02-4.98C12.767 214.81 11 210.54 11 206V18c0-4.54 1.768-8.81 4.98-12.02C19.19 2.767 23.46 1 28 1h80c4.54 0 8.81 1.768 12.02 4.98C123.233 9.19 125 13.46 125 18v188c0 4.54-1.768 8.81-4.98 12.02-3.21 3.212-7.48 4.98-12.02 4.98z" class="cls-18" transform="translate(1260 577)"/>
                <path d="M28 2c-4.274 0-8.292 1.664-11.314 4.686C13.664 9.708 12 13.726 12 18v188c0 4.274 1.664 8.292 4.686 11.314C19.708 220.336 23.726 222 28 222h80c4.274 0 8.292-1.664 11.314-4.686 3.022-3.022 4.686-7.04 4.686-11.314V18c0-4.274-1.664-8.292-4.686-11.314C116.292 3.664 112.274 2 108 2H28m0-2h80c9.941 0 18 8.059 18 18v188c0 9.941-8.059 18-18 18H28c-9.941 0-18-8.059-18-18V18c0-9.941 8.059-18 18-18z" class="cls-19" transform="translate(1260 577)"/>
            </g>
            <g id="사각형_791" class="cls-3" transform="translate(1312 791)">
                <rect width="32" height="2" class="cls-18" rx="1"/>
                <rect width="31" height="1" x=".5" y=".5" class="cls-20" rx=".5"/>
            </g>
            <path id="사각형_790" d="M0 0h56v2a10 10 0 0 1-10 10H10A10 10 0 0 1 0 2V0z" class="cls-4" transform="translate(1300 578)"/>
            <g id="폰안하트" transform="translate(-114.527 -1654.92)">
                <g id="그룹_405" transform="translate(-2.456 -1.994)">
                    <path id="color_heart2" d="M14.053 45.12a41.034 41.034 0 0 0-7.889-6.646C1.8 35.829.7 32.673.5 32.148a7.81 7.81 0 0 1-.5-2.734 8.384 8.384 0 0 1 8.567-8.169c2.2 0 4.292 1.652 5.918 3.236a.383.383 0 0 0 .616 0c1.531-1.513 3.652-3.237 5.918-3.237a8.384 8.384 0 0 1 8.566 8.169 8.064 8.064 0 0 1-.5 2.731 12.416 12.416 0 0 1-5.664 6.329 39.629 39.629 0 0 0-7.889 6.646.925.925 0 0 1-1.479.001z" class="cls-4" transform="translate(1429.983 2345.67)"/>
                </g>
                <g id="타원_159" fill="none" stroke="#010101" stroke-dasharray="1 3" stroke-width="3px" transform="translate(1412.527 2345.92)">
                    <circle cx="30" cy="30" r="30" class="cls-18"/>
                    <circle cx="30" cy="30" r="28.5" class="cls-20"/>
                </g>
                <path id="합치기_39" fill="#fff" d="M850-1374.084v-3h-3v-2h3v-3h2v3h3v2h-3v3z" transform="translate(591.527 3755.004)"/>
            </g>
            <g id="로고" transform="translate(1006 303)">
                <g id="그룹_406" transform="translate(277 346)">
                    <path id="패스_2909" d="M283.822 347.049h2.3v4.47h1.126v-4.47h2.3v-.872h-5.719z" class="cls-7" transform="translate(-275.428 -345.959)"/>
                    <path id="패스_2910" d="M279.46 346.177l-2.46 5.342h1.136l.6-1.339.007-.016h2.585l.007.016.6 1.339h1.15l-2.458-5.342zm1.479 3.116h-1.8l.017-.038.861-1.918.023-.053.025.053.86 1.918z" class="cls-7" transform="translate(-277 -345.959)"/>
                    <path id="패스_2911" d="M294.568 351.519h1.087l1.847-5.342h-1.134l-1.235 3.791-.025.077-.025-.077-1.235-3.791h-1.124l-1.235 3.791-.025.077-.025-.077-1.235-3.791h-1.134l1.847 5.342h1.094l1.251-3.667.025-.073.025.073 1.251 3.667z" class="cls-7" transform="translate(-274.218 -345.959)"/>
                    <path id="패스_2912" d="M297.192 350.978a3.36 3.36 0 0 0 4.337 0 2.733 2.733 0 0 0 .929-2.071 2.9 2.9 0 0 0-.8-1.991 3.358 3.358 0 0 0-4.6 0 2.9 2.9 0 0 0-.8 1.991 2.734 2.734 0 0 0 .934 2.071zm2.168-4.024a2 2 0 0 1 1.984 1.953 1.872 1.872 0 0 1-.58 1.347 2.012 2.012 0 0 1-2.808 0 1.879 1.879 0 0 1-.577-1.347 2 2 0 0 1 1.981-1.953z" class="cls-7" transform="translate(-272.56 -345.999)"/>
                    <path id="패스_2913" d="M332.631 350.628v-4.45h-1.078v5.342h4.63v-.892h-3.552z" class="cls-7" transform="translate(-264.426 -345.959)"/>
                    <path id="패스_2914" d="M323.629 350.65H320.2v-1.525h3.225v-.872H320.2v-1.217h3.325v-.872h-4.4v5.357h4.5z" class="cls-7" transform="translate(-267.29 -345.962)"/>
                    <path id="패스_2915" d="M348.1 350.65h-.026v-1.525h3.226v-.872h-3.224v-1.217h3.324v-.872H347v5.357h4.5v-.872z" class="cls-7" transform="translate(-260.867 -345.962)"/>
                    <path id="패스_2916" d="M344.57 350.827h-.017a2.044 2.044 0 0 1-2.053-1.927 1.879 1.879 0 0 1 .55-1.358 2.057 2.057 0 0 1 1.473-.588h.016a2.691 2.691 0 0 1 1.915.8l.523-.826a3.719 3.719 0 0 0-2.45-.927 3.423 3.423 0 0 0-2.078.752 2.72 2.72 0 0 0-1.053 2.168 2.977 2.977 0 0 0 3.038 2.847 3.449 3.449 0 0 0 2.588-.971l-.559-.81a2.474 2.474 0 0 1-1.893.84z" class="cls-7" transform="translate(-262.158 -346)"/>
                    <path id="패스_2917" d="M327.444 349.782h1.872a2.906 2.906 0 0 0 1.51-.33 1.872 1.872 0 0 0 .021-2.959 2.908 2.908 0 0 0-1.522-.327h-3.032v5.369h1.152zm0-2.718h2.023a1.071 1.071 0 0 1 .66.219.849.849 0 0 1 .315.692.915.915 0 0 1-.975.909h-2.023z" class="cls-7" transform="translate(-265.639 -345.962)"/>
                    <path id="패스_2918" d="M317.991 347.8l.008-.013h.065v3.728h1.078v-5.342h-1.362l-1.69 2.859-.023.038-.023-.038-1.694-2.859h-1.357v5.342h1.078v-3.728h.065l.008.013 1.627 2.669h.592z" class="cls-7" transform="translate(-268.704 -345.959)"/>
                    <path id="패스_2919" d="M304.7 350.872h-.069a3.86 3.86 0 0 1-2.184-.868l-.407.925a4.962 4.962 0 0 0 2.6.843 2.9 2.9 0 0 0 2.115-.683 1.492 1.492 0 0 0 .426-1.106c-.017-.749-.492-1.2-1.494-1.426-.22-.048-.588-.124-.913-.191l-.466-.1c-.514-.108-1.018-.246-1.024-.636 0-.342.373-.7 1.105-.715h.066a3.6 3.6 0 0 1 2.228.833l.441-.863a4.218 4.218 0 0 0-2.591-.885 2.8 2.8 0 0 0-1.929.728 1.4 1.4 0 0 0-.42 1.05c.028 1.136 1.313 1.446 2.742 1.686h.007c.559.094 1.137.191 1.158.644a.516.516 0 0 1-.16.386 1.75 1.75 0 0 1-1.231.378z" class="cls-7" transform="translate(-271.23 -345.999)"/>
                    <path id="패스_2920" d="M338.577 346.177l-2.459 5.342h1.136l.6-1.339.007-.016h2.585l.007.016.6 1.339h1.151l-2.46-5.342zm1.48 3.116h-1.8l.017-.038.86-1.918.025-.053.023.053.861 1.918z" class="cls-7" transform="translate(-263.374 -345.959)"/>
                    <path id="패스_2921" d="M312.4 346.916a3.358 3.358 0 0 0-4.6 0 2.9 2.9 0 0 0-.8 1.991 2.734 2.734 0 0 0 .928 2.071 3.36 3.36 0 0 0 4.337 0 2.733 2.733 0 0 0 .929-2.071 2.9 2.9 0 0 0-.794-1.991zm-.9 3.338a2.013 2.013 0 0 1-2.809 0 1.879 1.879 0 0 1-.577-1.347 1.983 1.983 0 0 1 3.965 0 1.876 1.876 0 0 1-.579 1.347z" class="cls-7" transform="translate(-270.086 -345.999)"/>
                </g>
                <g id="그룹_407" transform="translate(296.997 354.954)">
                    <path id="패스_2922" d="M295.022 353.277a1.743 1.743 0 1 0 0 3.485 1.659 1.659 0 0 0 1.388-.68l.022-.033-.492-.359-.009-.006-.023.036a1.048 1.048 0 0 1-.886.453 1.152 1.152 0 0 1 0-2.3 1.059 1.059 0 0 1 .887.455l.023.034.506-.335.007-.006-.021-.033a1.62 1.62 0 0 0-1.402-.711z" class="cls-7" transform="translate(-293.251 -353.277)"/>
                    <path id="패스_2923" d="M298.06 353.277a1.743 1.743 0 1 0 1.769 1.742 1.7 1.7 0 0 0-1.769-1.742zm0 2.894a1.152 1.152 0 1 1 1.128-1.152 1.091 1.091 0 0 1-1.128 1.152z" class="cls-7" transform="translate(-292.551 -353.277)"/>
                    <path id="패스_2924" d="M299.822 356.69h.616v-1.4h1.715v-.59h-1.715v-.794h1.823v-.584h-2.439z" class="cls-7" transform="translate(-291.737 -353.266)"/>
                    <path id="패스_2925" d="M302.459 356.69h.616v-1.4h1.715v-.59h-1.715v-.794h1.825v-.584h-2.439z" class="cls-7" transform="translate(-291.129 -353.266)"/>
                    <path id="패스_2926" d="M305.712 355.286h1.727v-.579h-1.727v-.8h1.845v-.579H305.1v3.364h2.545v-.579h-1.929z" class="cls-7" transform="translate(-290.521 -353.266)"/>
                    <path id="패스_2927" d="M308.465 355.286h1.727v-.579h-1.727v-.8h1.844v-.579h-2.46v3.364h2.545v-.579h-1.929z" class="cls-7" transform="translate(-289.886 -353.266)"/>
                    <path id="패스_2928" d="M313.951 355.859c.02-.031.043-.065.064-.1l.434-.676v-.009l-.463-.287h-.009l-.45.693-.539-.516a1.177 1.177 0 0 0 .6-.874.84.84 0 0 0-.95-.81.867.867 0 0 0-.954.827 1.121 1.121 0 0 0 .425.829 1.21 1.21 0 0 0-.566.918c0 .567.388.907 1.036.907a1.339 1.339 0 0 0 1-.431l.39.369h.832l-.867-.831zm-1.3-2.034c.217 0 .341.1.341.287s-.186.327-.389.474c-.236-.23-.29-.315-.29-.45a.3.3 0 0 1 .334-.311zm-.028 2.391c-.269 0-.452-.153-.452-.379a.764.764 0 0 1 .348-.524l.671.636a.711.711 0 0 1-.571.267z" class="cls-7" transform="translate(-289.033 -353.277)"/>
                    <path id="패스_2929" d="M316.8 353.327h-1.352v3.363h1.352a1.683 1.683 0 1 0 0-3.363zm0 2.78h-.737v-2.2h.737a1.007 1.007 0 0 1 1.115 1.1 1.017 1.017 0 0 1-1.115 1.1z" class="cls-7" transform="translate(-288.134 -353.266)"/>
                    <path id="패스_2930" d="M319.249 355.286h1.727v-.579h-1.727v-.8h1.845v-.579h-2.46v3.364h2.545v-.579h-1.929z" class="cls-7" transform="translate(-287.401 -353.266)"/>
                    <path id="패스_2931" d="M322.877 354.742l-.228-.031c-.469-.066-.651-.178-.651-.4 0-.273.276-.449.7-.449a1.67 1.67 0 0 1 .9.276l.036.022.31-.49v-.009l-.034-.022a2.137 2.137 0 0 0-1.216-.361c-.8 0-1.344.428-1.344 1.066 0 .667.552.883 1.015.947l.257.036c.495.066.706.187.706.4 0 .262-.3.444-.73.444a1.646 1.646 0 0 1-1.007-.349l-.036-.032-.333.484v.007l.028.025a2.2 2.2 0 0 0 1.355.45c.943 0 1.365-.54 1.365-1.075s-.364-.841-1.093-.939z" class="cls-7" transform="translate(-286.802 -353.276)"/>
                    <path id="패스_2932" d="M325.609 354.742l-.229-.031c-.468-.066-.651-.178-.651-.4 0-.273.276-.449.7-.449a1.677 1.677 0 0 1 .906.276l.034.022.31-.49v-.009l-.033-.022a2.141 2.141 0 0 0-1.217-.361c-.8 0-1.344.428-1.344 1.066 0 .667.552.883 1.015.947l.257.036c.5.066.707.187.707.4 0 .262-.3.444-.73.444a1.647 1.647 0 0 1-1.008-.349l-.036-.032-.332.484v.007l.027.025a2.2 2.2 0 0 0 1.356.45c.943 0 1.363-.54 1.363-1.075s-.366-.841-1.095-.939z" class="cls-7" transform="translate(-286.173 -353.276)"/>
                    <path id="패스_2933" d="M327.465 355.286h1.727v-.579h-1.727v-.8h1.844v-.579h-2.46v3.364h2.545v-.579h-1.929z" class="cls-7" transform="translate(-285.507 -353.266)"/>
                    <path id="패스_2934" d="M332.212 354.316c0-.639-.429-.989-1.211-.989h-1.4v3.363h.615v-1.381h.5l.872 1.376h.709l-.933-1.418a.968.968 0 0 0 .848-.951zm-2 .431v-.842h.77c.4 0 .589.132.589.411s-.187.431-.589.431z" class="cls-7" transform="translate(-284.873 -353.266)"/>
                    <path id="패스_2935" d="M332.168 353.91h1.068v2.78h.616v-2.78h1.068v-.584h-2.753z" class="cls-7" transform="translate(-284.281 -353.266)"/>
                </g>
            </g>
        </g>
        <g id="컬러하트" transform="translate(1569.916 2185.124)">
            <path id="color_heart6" d="M10.64.273a30.881 30.881 0 0 1-5.973 4.912A9.3 9.3 0 0 0 .38 9.86 5.65 5.65 0 0 0 0 11.881a6.28 6.28 0 0 0 6.486 6.037c1.669 0 3.25-1.221 4.481-2.392a.294.294 0 0 1 .466 0c1.159 1.118 2.765 2.392 4.481 2.392a6.281 6.281 0 0 0 6.486-6.037 5.834 5.834 0 0 0-.378-2.019 9.228 9.228 0 0 0-4.288-4.678A29.821 29.821 0 0 1 11.76.273a.711.711 0 0 0-1.12 0z" class="cls-8" transform="scale(-1) rotate(37 71.419 -53.608)"/>
            <path id="color_heart2-2" fill="#f2b2c2" d="M5.856 30.957a17 17 0 0 0-3.287-2.7 5.117 5.117 0 0 1-2.36-2.577A3.11 3.11 0 0 1 0 24.568a3.457 3.457 0 0 1 3.57-3.323 3.945 3.945 0 0 1 2.466 1.316.162.162 0 0 0 .256 0 3.92 3.92 0 0 1 2.466-1.317 3.457 3.457 0 0 1 3.569 3.323 3.211 3.211 0 0 1-.208 1.111 5.08 5.08 0 0 1-2.36 2.575 16.415 16.415 0 0 0-3.287 2.7.391.391 0 0 1-.616.004z" transform="translate(20.828 -18.904)"/>
            <path id="color_heart8" fill="#fbe5ea" d="M3 26.22a8.706 8.706 0 0 0-1.684-1.385 2.622 2.622 0 0 1-1.209-1.318 1.593 1.593 0 0 1-.107-.57 1.771 1.771 0 0 1 1.829-1.7 2.021 2.021 0 0 1 1.263.674.083.083 0 0 0 .131 0 2.008 2.008 0 0 1 1.263-.675 1.771 1.771 0 0 1 1.829 1.7 1.645 1.645 0 0 1-.107.569A2.6 2.6 0 0 1 5 24.836a8.409 8.409 0 0 0-1.684 1.384.2.2 0 0 1-.316 0z" transform="translate(39.826 -25.245)"/>
            <path id="color_heart7" fill="#e3597c" d="M6 9.951a17.413 17.413 0 0 0-3.368-2.77A5.243 5.243 0 0 1 .214 4.544 3.186 3.186 0 0 1 0 3.4 3.542 3.542 0 0 1 3.657 0a4.042 4.042 0 0 1 2.527 1.349.166.166 0 0 0 .263 0A4.016 4.016 0 0 1 8.974 0a3.542 3.542 0 0 1 3.657 3.4 3.29 3.29 0 0 1-.213 1.138A5.2 5.2 0 0 1 10 7.181a16.818 16.818 0 0 0-3.368 2.77.4.4 0 0 1-.632 0z" transform="rotate(-30 59.742 -37.976)"/>
        </g>
        <g id="컵" transform="translate(1201.066 2327.708)">
            <g id="패스_2728" class="cls-2">
                <path d="M28.365 45.736H4.139L-.62 6h33.746l-4.76 39.736z" class="cls-18" transform="translate(5.382 15.904)"/>
                <path d="M.506 7l4.52 37.736h22.451L31.998 7H.506m-2.254-2h36l-5 41.736h-26L-1.748 5z" class="cls-19" transform="translate(5.382 15.904)"/>
            </g>
            <path id="패스_2730" fill="none" stroke="#000" stroke-width="2px" d="M0 15.944L.214 3.052 4.362 0" transform="rotate(14.98 15.31 116.623)"/>
            <path id="합치기_13" d="M1.128 12.8A1.127 1.127 0 0 1 0 11.668V6.962a1.127 1.127 0 0 1 1.128-1.128h4.045V3.917a1 1 0 0 1 1-1h16.648V1a1 1 0 0 1 1-1h6.606a1 1 0 0 1 1 1v1.917H34.8a1 1 0 0 1 1 1v1.917h5.5a1.128 1.128 0 0 1 1.128 1.128v4.707a1.128 1.128 0 0 1-1.122 1.131z" transform="translate(0 12.152)"/>
            <g id="그룹_363" transform="translate(15.785 29.922)">
                <path id="사각형_499" d="M0 0H5.638V5.638H0z" class="cls-13" transform="translate(.001)"/>
                <path id="사각형_591" d="M0 0H5.638V5.638H0z" class="cls-13" transform="translate(5.639 5.638)"/>
                <path id="사각형_500" d="M0 0H5.638V5.638H0z" class="cls-14" transform="translate(5.639)"/>
                <path id="사각형_592" d="M0 0H5.638V5.638H0z" class="cls-14" transform="translate(0 5.638)"/>
            </g>
        </g>
        <g id="폭죽" transform="translate(6)">
            <path id="사각형_786" d="M0 0H6V6H0z" class="cls-4" transform="rotate(45 -2021.767 2646.329)"/>
            <path id="사각형_789" d="M0 0H6V6H0z" class="cls-4" transform="rotate(-45 3322.945 -377.837)"/>
            <path id="사각형_792" d="M0 0H6V6H0z" class="cls-4" transform="rotate(45 -2070.81 2680.058)"/>
            <path id="사각형_794" d="M0 0H6V6H0z" class="cls-4" transform="rotate(45 -2128.548 2646.506)"/>
        </g>
        <g id="사람" transform="translate(89.046 1357.843)">
            <path id="패스_3012" d="M-6445.356 3717.568v24.584l-17.717 49.474s6.755 11.6 30.08 11.6 30.208-10.452 30.208-10.452l-16.187-50.621-.718-24.584" transform="translate(7861.866 -2838.909)"/>
            <path id="패스_3076" d="M-1627.255 3488.308c-1.624 7.426.539 7.307 0 11.14s-1.228 3.209-2.156 4.2 2.156 3.4 2.156 3.4l6.788-1.508 8.18-1.218 6.439.974s-2.32-8.4-1.45-11.765-3.887-10.5-3.887-10.5-14.445-2.149-16.07 5.277z" class="cls-4" transform="translate(3046.454 -2637.928)"/>
            <path id="패스_3058" d="M1425.538 867.7l-6.244 1.358-20.673-36.209-5.785 2.059 9.706 25.1 9.693 16.7s.857 14.16 2.845 23.232-.392 13.922-.392 13.922l26.34-.926s-.212-.792 1.32-10.278 5.49-26.668 5.49-26.668l22.334-39.109-7.291-3.48-22.926 34.672-5.722-1.2z" class="cls-1"/>
            <path id="패스_3051" d="M1430.894 875.189l-2.873 7.021s4.729-.117 6.412-1.045" class="cls-1" transform="translate(-4.903 -6.193)"/>
            <g id="패스_3056" class="cls-2">
                <path d="M3.937 14.759l-3.89-2.81L1.043 1h6.08l.994 10.928-4.18 2.83z" class="cls-18" transform="translate(1425.971 859.948)"/>
                <path d="M1.956 2l-.861 9.472 2.86 2.067 3.113-2.108L6.21 2H1.956M.13 0h7.907l1.13 12.425-5.249 3.554L-1 12.425.13 0z" class="cls-19" transform="translate(1425.971 859.948)"/>
            </g>
            <path id="패스_3052" d="M-1629.485 3573.337l-4.91 10.787 3.63 78.276 8.665-1 5.925-82.032z" class="cls-4" transform="translate(3045.23 -2639.928)"/>
            <path id="패스_3053" d="M-1628.516 3665.672l-8.638 4.469s-.259 1.453 1.667 1.81 7.623-1.3 9.82-.754 2.917-.27 2.917-.27.915.553 0-2.01a16.189 16.189 0 0 1-1-4 1.867 1.867 0 0 1-1.984 2.38c-2.518.003-2.782-1.625-2.782-1.625z" class="cls-4" transform="translate(3045.23 -2640.928)"/>
            <path id="패스_3054" d="M-1629 3658l1.328 6.563a2.87 2.87 0 0 0 1.875.984 4.919 4.919 0 0 0 2.144-.664l.82-6.3z" class="cls-4" transform="translate(3045.23 -2639.928)"/>
            <path id="합치기_40" d="M3059.795-2615.966c-4.1-.059-6.229-2.811-8.272-7.454l-.838.058a2.5 2.5 0 0 1-2.668-2.319 2.5 2.5 0 0 1 2.32-2.669l.247-.017a26.059 26.059 0 0 1 2.573-8.986l10.756-.576a30.217 30.217 0 0 1 2.9 8.426l.481-.033a2.5 2.5 0 0 1 2.668 2.32 2.5 2.5 0 0 1-2.319 2.668l-.91.064c-.8 4.587-3.017 8.518-6.858 8.518z" class="cls-15" transform="translate(-1630 3481.666)"/>
            <g id="logo" transform="translate(1424.875 889.889)">
                <path id="사각형_499-2" d="M0 0H3.911V3.911H0z" class="cls-13"/>
                <path id="사각형_591-2" d="M0 0H3.911V3.911H0z" class="cls-13" transform="translate(3.911 3.911)"/>
                <path id="사각형_500-2" d="M0 0H3.911V3.911H0z" class="cls-14" transform="translate(3.911)"/>
                <path id="사각형_592-2" d="M0 0H3.911V3.911H0z" class="cls-14" transform="translate(0 3.911)"/>
            </g>
            <path id="패스_3065" d="M0 0h2v11l-3.937-1.344z" class="cls-4" transform="translate(1418.454 869.072)"/>
            <path id="패스_3066" d="M1426.9 857.887c.478-.539 3.443-.638 3.953-.132s-.523 2.364-1.906 2.507-2.524-1.836-2.047-2.375z" class="cls-4" transform="translate(1 .949)"/>
            <path id="패스_3067" d="M1438.25 867.465h2.008l1.828 11.266-4.079 1.071z" class="cls-4"/>
            <path id="패스_3068" d="M1393.442 835.045l-1.294-5.4s-4.451-6.658-4.641-9.684 1.841-3.09 3.838-2.276 3.124 4.909 3.124 4.909a24.02 24.02 0 0 0 2.633-2.9c.662-1.029 0 2.1 0 2.1l-1.324 6.84 2.059 4.51" class="cls-1"/>
            <path id="패스_3069" d="M1414.071 903.154s15.448 17.93 29.707.792" class="cls-16"/>
            <path id="패스_3070" d="M1428.937 911.811l-6.544 3.075s4.583 6.5 8.528-3.075" class="cls-16" transform="translate(0 -.569)"/>
            <path id="패스_3071" d="M1424.378 911.811l6.544 3.075s-4.583 6.5-8.528-3.075" class="cls-16" transform="translate(8 -.569)"/>
            <path id="패스_3072" d="M1428.62 921.242l2.139-9.48 1.664 12.833" class="cls-16"/>
            <path id="패스_3073" d="M1431.784 876.059l2.649 6.15s-4.729-.117-6.412-1.045" class="cls-1" transform="translate(2.155 -6.194)"/>
            <path id="패스_3074" d="M1391.888 835.045l1.294-5.4s4.451-6.658 4.641-9.684-1.841-3.09-3.838-2.276-3.124 4.909-3.124 4.909a24.02 24.02 0 0 1-2.633-2.9c-.662-1.029 0 2.1 0 2.1l1.324 6.84-2.059 4.51" class="cls-1" transform="translate(77.508 1)"/>
            <path id="패스_3078" d="M1394.985 839.921l5.589-2.745" class="cls-1"/>
            <path id="패스_3079" d="M1460.773 837.176l6.863 3.333" class="cls-1"/>
            <path id="패스_3077" d="M-1627.626 3491.283s6.783 5.712 9.238-2.722c2.236-7.684 3.953-1.516 7.2.723.028.033-.159 2.479.159 2.586.393.133 1.224-2.035 1.815-1.835 2.1.711 1.532.534 1.532.534s2.856-11.157-8.658-12.272c-4.732-.458-8.35 1.132-9.773 4.061-1.724 3.533-1.513 8.925-1.513 8.925z" class="cls-4" transform="translate(3046.454 -2637.928)"/>
            <path id="패스_3080" d="M-1621.086 3573.337l4.91 10.787-3.63 78.276-8.665-1-5.925-82.032z" class="cls-4" transform="translate(3064.789 -2639.928)"/>
            <path id="패스_3081" d="M-1630.993 3665.672l8.638 4.469s.259 1.453-1.667 1.81-7.623-1.3-9.82-.754-2.917-.27-2.917-.27-.915.553 0-2.01a16.189 16.189 0 0 0 1-4 1.867 1.867 0 0 0 1.984 2.38c2.519.003 2.782-1.625 2.782-1.625z" class="cls-4" transform="translate(3073.726 -2640.928)"/>
            <path id="패스_3082" d="M-1622.833 3658l-1.328 6.563a2.87 2.87 0 0 1-1.875.984 4.919 4.919 0 0 1-2.144-.664l-.82-6.3z" class="cls-4" transform="translate(3066.051 -2639.928)"/>
        </g>
        <g id="케이크" transform="translate(-213 44)">
            <g id="패스_2880" class="cls-2">
                <path d="M19.968 42H-7.404c1.898-2.058 4.656-6.017 6.26-12.75C-.094 24.83.587 18.558.877 10.607c.156-4.278.15-7.913.135-9.608h10.965c-.032 1.767-.073 5.627.05 10.139.228 8.312.878 14.769 1.93 19.19 1.493 6.268 4.059 9.791 6.01 11.671z" class="cls-18" transform="translate(1494.5 2303.915)"/>
                <path d="M2.02 2c.006 1.933-.012 5.066-.143 8.644C1.585 18.661.895 25-.173 29.481-1.254 34.031-2.975 37.905-5.285 41h23.01c-2.137-2.695-3.73-6.201-4.738-10.44-1.07-4.487-1.727-11.013-1.957-19.394-.104-3.798-.092-7.138-.066-9.166H2.019M0 0h13s-.569 19.598 1.931 30.098S23 43 23 43h-33s5.382-3.482 7.882-13.982S0 0 0 0z" class="cls-19" transform="translate(1494.5 2303.915)"/>
            </g>
            <g id="사각형_707" class="cls-15">
                <path d="M0 0H61V10H0z" class="cls-18" transform="translate(1470.5 2301.915)"/>
                <path d="M1 1H60V9H1z" class="cls-20" transform="translate(1470.5 2301.915)"/>
            </g>
            <g id="그룹_5" transform="translate(1325.5 1905.481)">
                <g id="패스_2481" class="cls-2">
                    <path d="M44 26H1V1h43v25z" class="cls-18" transform="translate(153 371.062)"/>
                    <path d="M2 2v23h41V2H2M0 0h45v27H0V0z" class="cls-19" transform="translate(153 371.062)"/>
                </g>
                <g id="사각형_21" fill="#010101" stroke="#000">
                    <path d="M0 0H43V2H0z" class="cls-18" transform="translate(154 391)"/>
                    <path d="M0.5 0.5H42.5V1.5H0.5z" class="cls-20" transform="translate(154 391)"/>
                </g>
                <g id="사각형_24" class="cls-3">
                    <path d="M0 0H2V3H0z" class="cls-18" transform="rotate(45 -373.695 384.063)"/>
                    <path d="M0.5 0.5H1.5V2.5H0.5z" class="cls-20" transform="rotate(45 -373.695 384.063)"/>
                </g>
                <g id="사각형_25" class="cls-3">
                    <path d="M0 0H2V3H0z" class="cls-18" transform="rotate(45 -375.695 379.235)"/>
                    <path d="M0.5 0.5H1.5V2.5H0.5z" class="cls-20" transform="rotate(45 -375.695 379.235)"/>
                </g>
                <g id="사각형_26" class="cls-3">
                    <path d="M0 0H2V3H0z" class="cls-18" transform="rotate(45 -369.195 394.927)"/>
                    <path d="M0.5 0.5H1.5V2.5H0.5z" class="cls-20" transform="rotate(45 -369.195 394.927)"/>
                </g>
                <g id="사각형_27" class="cls-3">
                    <path d="M0 0H2V3H0z" class="cls-18" transform="rotate(45 -371.195 390.099)"/>
                    <path d="M0.5 0.5H1.5V2.5H0.5z" class="cls-20" transform="rotate(45 -371.195 390.099)"/>
                </g>
                <g id="사각형_28" class="cls-3">
                    <path d="M0 0H2V3H0z" class="cls-18" transform="rotate(45 -364.695 405.791)"/>
                    <path d="M0.5 0.5H1.5V2.5H0.5z" class="cls-20" transform="rotate(45 -364.695 405.791)"/>
                </g>
                <g id="사각형_29" class="cls-3">
                    <path d="M0 0H2V3H0z" class="cls-18" transform="rotate(45 -366.695 400.963)"/>
                    <path d="M0.5 0.5H1.5V2.5H0.5z" class="cls-20" transform="rotate(45 -366.695 400.963)"/>
                </g>
                <g id="사각형_30" class="cls-3">
                    <path d="M0 0H2V3H0z" class="cls-18" transform="rotate(45 -360.195 416.655)"/>
                    <path d="M0.5 0.5H1.5V2.5H0.5z" class="cls-20" transform="rotate(45 -360.195 416.655)"/>
                </g>
                <g id="사각형_31" class="cls-3">
                    <path d="M0 0H2V3H0z" class="cls-18" transform="rotate(45 -362.695 410.62)"/>
                    <path d="M0.5 0.5H1.5V2.5H0.5z" class="cls-20" transform="rotate(45 -362.695 410.62)"/>
                </g>
                <path id="패스_2501" d="M3-2.381S6 1.343 6 3a3 3 0 0 1-6 0c0-1.657 3-5.381 3-5.381z" class="cls-8" transform="translate(172 357.814)"/>
                <g id="사각형_33" class="cls-3">
                    <path d="M0 0H2V5H0z" class="cls-18" transform="translate(174 367)"/>
                    <path d="M0.5 0.5H1.5V4.5H0.5z" class="cls-20" transform="translate(174 367)"/>
                </g>
                <g id="사각형_34" class="cls-3">
                    <path d="M0 0H2V5H0z" class="cls-18" transform="translate(184 367)"/>
                    <path d="M0.5 0.5H1.5V4.5H0.5z" class="cls-20" transform="translate(184 367)"/>
                </g>
                <path id="패스_2504" d="M3-2.381S6 1.343 6 3a3 3 0 0 1-6 0c0-1.657 3-5.381 3-5.381z" class="cls-8" transform="translate(182 357.814)"/>
                <g id="사각형_32" class="cls-3">
                    <path d="M0 0H2V5H0z" class="cls-18" transform="translate(164 367)"/>
                    <path d="M0.5 0.5H1.5V4.5H0.5z" class="cls-20" transform="translate(164 367)"/>
                </g>
                <path id="패스_2508" d="M3-2.381S6 1.343 6 3a3 3 0 0 1-6 0c0-1.657 3-5.381 3-5.381z" class="cls-8" transform="translate(162 357.814)"/>
                <g id="사각형_708" class="cls-3">
                    <path d="M0 0H2V3H0z" class="cls-18" transform="rotate(45 -358.195 421.484)"/>
                    <path d="M0.5 0.5H1.5V2.5H0.5z" class="cls-20" transform="rotate(45 -358.195 421.484)"/>
                </g>
            </g>
            <path id="패스_2881" d="M0 0h11v8a16.422 16.422 0 0 0-5.807-1.411A11.736 11.736 0 0 0 0 8z" class="cls-4" transform="translate(1495.5 2310.915)"/>
        </g>
    </g>
</svg>
